<?xml version="1.0" standalone="no"?><!DOCTYPE svg PUBLIC "-//W3C//DTD SVG 1.1//EN" "http://www.w3.org/Graphics/SVG/1.1/DTD/svg11.dtd"><svg t="1569810124759" class="icon" viewBox="0 0 1024 1024" version="1.1" xmlns="http://www.w3.org/2000/svg" p-id="1318" xmlns:xlink="http://www.w3.org/1999/xlink" width="200" height="200"><defs><style type="text/css"></style></defs><path d="M607.573333 457.386667m-54.613333 0a54.613333 54.613333 0 1 0 109.226667 0 54.613333 54.613333 0 1 0-109.226667 0Z" fill="#DDDDDD" p-id="1319"></path><path d="M457.386667 457.386667m-54.613334 0a54.613333 54.613333 0 1 0 109.226667 0 54.613333 54.613333 0 1 0-109.226667 0Z" fill="#DDDDDD" p-id="1320"></path><path d="M308.3264 129.71008L307.575467 129.706667C239.50336 129.706667 184.32 184.722773 184.32 252.586667s55.18336 122.88 123.255467 122.88c63.443627 0 115.69152-47.786667 122.504533-109.23008-67.72736-0.402773-122.504533-55.261867-122.504533-122.876587 0-4.614827 0.256-9.168213 0.750933-13.64992zM742.980267 129.71008l0.750933-0.003413C811.803307 129.706667 866.986667 184.722773 866.986667 252.586667s-55.18336 122.88-123.255467 122.88c-63.443627 0-115.69152-47.786667-122.504533-109.23008 67.72736-0.402773 122.504533-55.261867 122.504533-122.876587 0-4.614827-0.256-9.168213-0.750933-13.64992z" fill="#ED5481" p-id="1321"></path><path d="M266.24 662.186667H184.32M866.986667 662.186667h-81.92" fill="#26BBEC" p-id="1322"></path><path d="M252.586667 607.634773C252.586667 532.196693 313.644373 471.04 388.990293 471.04h273.32608c75.332267 0 136.403627 61.105493 136.403627 136.594773v40.83712C798.72 723.909973 737.662293 785.066667 662.316373 785.066667h-273.32608C313.658027 785.066667 252.586667 723.961173 252.586667 648.471893v-40.83712z" fill="#ED5481" p-id="1323"></path></svg>